<?xml version="1.0" encoding="utf-8"?>
<!-- Generator: Adobe Illustrator 25.0.1, SVG Export Plug-In . SVG Version: 6.00 Build 0)  -->
<svg version="1.1" id="Layer_1" xmlns="http://www.w3.org/2000/svg" xmlns:xlink="http://www.w3.org/1999/xlink" x="0px" y="0px"
	 viewBox="0 0 100 100" style="enable-background:new 0 0 100 100;" xml:space="preserve">
<style type="text/css">
	.st0{fill:#F8F8F6;stroke:#9D9D9C;stroke-width:0.2835;stroke-miterlimit:10;}
	.st1{fill:none;stroke:#D83E1B;stroke-miterlimit:10;}
	.st2{fill:#D83E1B;}
	.st3{font-family:'Montserrat-Bold';}
	.st4{font-size:16px;}
</style>
<path class="st0" d="M97.42,24.61L78.24,12.26c-0.12-0.08-0.25-0.13-0.39-0.16L61.14,8.56c0,0,0,0,0,0L60.7,8.46
	c-0.08-0.02-0.16-0.03-0.24-0.03H39.54c-0.08,0-0.16,0.01-0.24,0.03l-0.43,0.09c0,0,0,0,0,0L22.15,12.1
	c-0.14,0.03-0.27,0.08-0.39,0.16L2.58,24.61c-0.53,0.34-0.69,1.05-0.36,1.59l11.77,18.89c0.18,0.29,0.47,0.48,0.81,0.53
	c0.33,0.05,0.67-0.04,0.93-0.26l4.79-4.06l0.28,49.1c0,0.64,0.52,1.16,1.16,1.16h56.1c0.64,0,1.16-0.52,1.16-1.16l0.28-49.1
	l4.79,4.06c0.26,0.22,0.6,0.31,0.93,0.26c0.33-0.05,0.63-0.25,0.81-0.53L97.78,26.2C98.12,25.66,97.96,24.95,97.42,24.61z
	 M59.52,11.64c-0.07,0.3-0.14,0.6-0.24,0.89c-0.03,0.08-0.06,0.16-0.09,0.24c-0.07,0.21-0.15,0.42-0.23,0.62
	c-0.05,0.11-0.1,0.21-0.15,0.32c-0.08,0.17-0.16,0.34-0.25,0.5c-0.06,0.11-0.13,0.22-0.19,0.33c-0.09,0.15-0.18,0.3-0.27,0.45
	c-0.07,0.11-0.15,0.21-0.23,0.32c-0.1,0.14-0.2,0.27-0.31,0.4c-0.08,0.1-0.17,0.21-0.26,0.31c-0.11,0.12-0.22,0.25-0.34,0.37
	c-0.09,0.1-0.19,0.19-0.29,0.29c-0.12,0.11-0.24,0.22-0.37,0.33c-0.1,0.09-0.21,0.17-0.32,0.26c-0.13,0.1-0.26,0.2-0.4,0.29
	c-0.11,0.08-0.22,0.16-0.34,0.23c-0.14,0.09-0.28,0.18-0.43,0.26c-0.12,0.07-0.23,0.14-0.36,0.2c-0.15,0.08-0.3,0.15-0.46,0.22
	c-0.12,0.06-0.24,0.11-0.37,0.16c-0.16,0.07-0.33,0.12-0.49,0.18c-0.12,0.04-0.25,0.09-0.37,0.13c-0.18,0.05-0.36,0.1-0.54,0.14
	c-0.12,0.03-0.24,0.06-0.36,0.09c-0.2,0.04-0.41,0.07-0.62,0.09c-0.1,0.01-0.21,0.03-0.31,0.04c-0.31,0.03-0.63,0.05-0.95,0.05
	s-0.64-0.02-0.95-0.05c-0.11-0.01-0.21-0.03-0.31-0.04c-0.21-0.03-0.41-0.05-0.62-0.09c-0.12-0.02-0.24-0.06-0.36-0.09
	c-0.18-0.04-0.36-0.09-0.54-0.14c-0.13-0.04-0.25-0.08-0.37-0.13c-0.17-0.06-0.33-0.11-0.49-0.18c-0.12-0.05-0.25-0.11-0.37-0.16
	c-0.15-0.07-0.31-0.14-0.46-0.22c-0.12-0.06-0.24-0.13-0.36-0.2c-0.14-0.08-0.29-0.17-0.43-0.26c-0.11-0.07-0.23-0.15-0.34-0.23
	c-0.13-0.1-0.27-0.19-0.4-0.3C43.9,17.17,43.8,17.08,43.7,17c-0.12-0.11-0.25-0.22-0.37-0.33c-0.1-0.09-0.2-0.19-0.29-0.29
	c-0.12-0.12-0.23-0.24-0.34-0.37c-0.09-0.1-0.18-0.2-0.26-0.31c-0.11-0.13-0.2-0.27-0.3-0.4c-0.08-0.11-0.16-0.21-0.23-0.32
	c-0.1-0.14-0.18-0.29-0.27-0.44c-0.07-0.11-0.13-0.22-0.2-0.33c-0.09-0.16-0.16-0.33-0.24-0.49c-0.05-0.11-0.11-0.21-0.15-0.32
	c-0.08-0.2-0.16-0.4-0.23-0.6c-0.03-0.09-0.07-0.17-0.09-0.26c-0.09-0.29-0.17-0.59-0.24-0.89c-0.02-0.07-0.02-0.15-0.04-0.22
	c-0.04-0.22-0.08-1.43-0.11-1.65h19.32c-0.03,0.23-0.07,1.45-0.11,1.67C59.54,11.5,59.53,11.57,59.52,11.64z"/>
<g>
	<g>
		<line class="st1" x1="37.94" y1="11.83" x2="37.94" y2="88.17"/>
		<g>
			<polygon class="st2" points="34.76,17.74 35.7,18.09 37.94,11.93 40.18,18.09 41.12,17.74 37.94,9.01 			"/>
		</g>
		<g>
			<polygon class="st2" points="34.76,82.26 35.7,81.91 37.94,88.07 40.18,81.91 41.12,82.26 37.94,90.99 			"/>
		</g>
	</g>
</g>
<g>
	<g>
		<line class="st1" x1="76.38" y1="40.97" x2="23.62" y2="40.97"/>
		<g>
			<polygon class="st2" points="70.47,37.79 70.13,38.73 76.29,40.97 70.13,43.21 70.47,44.15 79.21,40.97 			"/>
		</g>
		<g>
			<polygon class="st2" points="29.53,37.79 29.87,38.73 23.71,40.97 29.87,43.21 29.53,44.15 20.79,40.97 			"/>
		</g>
	</g>
</g>
<text transform="matrix(1 0 0 1 23.312 79.5138)" class="st2 st3 st4">A</text>
<text transform="matrix(1 0 0 1 56.7274 39.3684)" class="st2 st3 st4">B</text>
</svg>
