<?xml version="1.0" encoding="utf-8"?>
<!-- Generator: Adobe Illustrator 25.0.1, SVG Export Plug-In . SVG Version: 6.00 Build 0)  -->
<svg version="1.1" id="Layer_1" xmlns="http://www.w3.org/2000/svg" xmlns:xlink="http://www.w3.org/1999/xlink" x="0px" y="0px"
	 viewBox="0 0 600 600" style="enable-background:new 0 0 600 600;" xml:space="preserve">
<style type="text/css">
	.st0{fill:#D83E1B;}
</style>
<path d="M220.38,250.47c-0.02-2.11,0.67-4.91,2.11-7.49c0.41-0.73,1.15-1.28,1.74-1.91c0.13-0.14,0.31-0.26,0.37-0.41
	c1.21-3.05,3.98-4.48,6.65-5.59c3.17-1.32,6.62-1.95,10.18-1.19c3.6,0.77,6.72,2.34,9.32,4.93c2.61,2.59,4.28,5.7,4.87,9.34
	c1.15,6.99-0.98,12.89-6.52,17.24c-5.51,4.33-11.75,4.94-18.19,2.25C224.51,264.94,220.26,258.23,220.38,250.47z"/>
<g>
	<path class="st0" d="M425.91,287.06c0,25.41,0,50.83,0,76.24c0,7.25-4.82,12.06-12.08,12.06c-41.29,0-82.58,0-123.88,0
		c-22.97,0-45.94,0.01-68.92,0.01c-11.39,0-22.78-0.02-34.17,0.02c-2.99,0.01-5.8-0.46-8.22-2.33c-2.97-2.29-4.51-5.33-4.54-9.09
		c-0.03-4.38-0.01-8.76-0.01-13.14c0-46.68,0-93.36,0-140.04c0-7.07,4.89-11.98,11.93-11.98c4.91,0,9.82,0.02,14.73,0.02
		c63.45-0.01,126.91-0.02,190.37-0.02c7.58,0,15.16,0,22.74,0c7.17,0,12.05,4.84,12.05,12.01c0,8.15-0.09,16.31-0.1,24.45
		c-0.02,17.26-0.01,34.52-0.01,51.78C425.85,287.06,425.88,287.06,425.91,287.06z M419.71,211.2c0-4.12-1.97-6.14-6.13-6.15
		c-8.72-0.03-17.45-0.03-26.17-0.03c-22.37,0-155.98,0.05-200.41-0.03c-3.96-0.01-6.76,1.91-6.73,6.65
		c0.14,18.79,0.07,119.13,0.07,140.96c0,0.53,0.05,1.06,0.08,1.65c2.88-2.81,5.64-5.43,8.32-8.13
		c13.41-13.55,26.78-27.16,40.19-40.7c4.89-4.93,12.53-5.63,18.2-1.63c1.81,1.28,3.36,2.94,4.94,4.52
		c18.71,18.7,37.41,37.42,56.12,56.13c1.68,1.68,3.59,1.84,5.04,0.43c1.49-1.44,1.41-3.29-0.31-5.02
		c-11.65-11.68-36.3-35.94-36.88-36.34c4.08-5.76,39.8-56.33,49.6-70.11c5.93-8.33,17.77-8.26,23.71,0.1
		c8.48,11.94,16.94,23.9,25.4,35.86c14.62,20.66,29.23,41.32,43.85,61.97c0.25,0.35,0.54,0.68,1,1.24c0.05-0.63,0.1-0.9,0.1-1.18
		c0-16.58-0.01-33.15-0.01-49.72C419.7,282.02,419.71,219.07,419.71,211.2z"/>
	<circle class="st0" cx="238.16" cy="251.41" r="19.06"/>
</g>
<g>
	<path class="st0" d="M180,407.6h-2.11v-14.72H180V407.6z M188.64,401.04h-8.85v-1.83h8.85V401.04z M188.45,392.87h2.11v14.72h-2.11
		V392.87z"/>
	<path class="st0" d="M197.24,405.77h8.58v1.83h-10.68v-14.72h10.39v1.83h-8.28v11.06H197.24z M197.05,399.23h7.57v1.79h-7.57
		V399.23z"/>
	<path class="st0" d="M209.13,407.6v-14.72h1.72l6.6,11.12h-0.92l6.52-11.12h1.72l0.02,14.72h-2.02l-0.02-11.55h0.49l-5.8,9.76
		h-0.96l-5.84-9.76h0.53v11.55H209.13z"/>
	<path class="st0" d="M227.34,407.6l6.67-14.72h2.08l6.69,14.72h-2.21l-5.95-13.55h0.85l-5.95,13.55H227.34z M230.18,403.92
		l0.57-1.68h8.28l0.61,1.68H230.18z"/>
	<path class="st0" d="M251.35,407.77c-1.07,0-2.05-0.18-2.96-0.56c-0.9-0.37-1.69-0.89-2.35-1.58c-0.67-0.68-1.19-1.48-1.55-2.38
		c-0.37-0.91-0.56-1.91-0.56-3.01c0-1.09,0.18-2.1,0.56-3.01c0.37-0.91,0.89-1.71,1.55-2.38c0.66-0.68,1.45-1.2,2.35-1.58
		s1.89-0.56,2.96-0.56c1.18,0,2.26,0.2,3.25,0.59c0.99,0.39,1.81,0.96,2.47,1.72l-1.31,1.32c-0.59-0.61-1.24-1.04-1.97-1.32
		s-1.51-0.42-2.34-0.42c-0.77,0-1.49,0.14-2.15,0.42c-0.67,0.28-1.24,0.67-1.72,1.16c-0.49,0.49-0.86,1.09-1.12,1.79
		c-0.26,0.69-0.4,1.45-0.4,2.26s0.14,1.56,0.4,2.26c0.26,0.69,0.64,1.29,1.12,1.79s1.06,0.89,1.72,1.16
		c0.66,0.28,1.39,0.42,2.15,0.42c0.85,0,1.63-0.14,2.34-0.42c0.72-0.28,1.38-0.73,1.97-1.32l1.31,1.32
		c-0.66,0.76-1.48,1.33-2.47,1.72C253.62,407.56,252.53,407.77,251.35,407.77z M253.23,399.5v1.72h-7.89v-1.72H253.23z"/>
	<path class="st0" d="M264.04,406l0.73-1.55c0.65,0.5,1.36,0.89,2.14,1.13c0.78,0.26,1.55,0.38,2.32,0.39
		c0.77,0.01,1.48-0.1,2.14-0.3c0.65-0.21,1.17-0.53,1.57-0.95c0.39-0.42,0.59-0.94,0.59-1.55c0-0.76-0.3-1.33-0.92-1.72
		s-1.45-0.59-2.54-0.59h-3.28v-1.71h3.13c0.94,0,1.67-0.19,2.2-0.58c0.53-0.38,0.79-0.92,0.79-1.61c0-0.52-0.16-0.96-0.47-1.32
		c-0.32-0.36-0.74-0.63-1.28-0.81s-1.15-0.28-1.83-0.29s-1.38,0.09-2.09,0.27c-0.72,0.19-1.4,0.49-2.06,0.89l-0.67-1.72
		c0.89-0.5,1.83-0.86,2.81-1.06c0.97-0.2,1.91-0.26,2.83-0.19c0.92,0.07,1.74,0.29,2.47,0.63s1.32,0.79,1.77,1.35
		c0.44,0.56,0.66,1.22,0.66,1.99c0,0.7-0.18,1.32-0.55,1.86c-0.37,0.54-0.87,0.96-1.51,1.24c-0.65,0.29-1.4,0.43-2.25,0.43
		l0.09-0.57c0.98,0,1.83,0.16,2.55,0.47s1.28,0.76,1.68,1.33s0.6,1.24,0.6,2c0,0.72-0.18,1.35-0.55,1.91s-0.86,1.02-1.48,1.39
		c-0.62,0.37-1.33,0.64-2.12,0.81c-0.79,0.17-1.63,0.22-2.5,0.17c-0.87-0.06-1.73-0.22-2.58-0.5
		C265.58,406.96,264.78,406.55,264.04,406z"/>
	<path class="st0" d="M285.78,407.77c-1.12,0-2.16-0.19-3.13-0.57s-1.79-0.91-2.5-1.59c-0.7-0.68-1.25-1.48-1.64-2.38
		c-0.39-0.91-0.59-1.91-0.59-2.99s0.2-2.07,0.59-2.99c0.39-0.91,0.94-1.71,1.64-2.38c0.7-0.68,1.53-1.21,2.48-1.59
		c0.95-0.37,2-0.57,3.13-0.57c1.12,0,2.15,0.18,3.1,0.56s1.77,0.89,2.48,1.58c0.71,0.68,1.25,1.48,1.64,2.38
		c0.38,0.91,0.58,1.91,0.58,3.01s-0.19,2.1-0.58,3.01c-0.38,0.91-0.93,1.71-1.64,2.38c-0.71,0.68-1.54,1.2-2.48,1.58
		C287.94,407.58,286.91,407.77,285.78,407.77z M285.78,405.89c0.81,0,1.57-0.14,2.26-0.42s1.3-0.68,1.81-1.19s0.91-1.11,1.2-1.79
		c0.29-0.69,0.43-1.44,0.43-2.25s-0.14-1.56-0.43-2.25c-0.29-0.69-0.69-1.28-1.2-1.79s-1.12-0.91-1.81-1.19s-1.45-0.42-2.26-0.42
		c-0.83,0-1.59,0.14-2.28,0.42s-1.3,0.68-1.82,1.19c-0.52,0.51-0.92,1.11-1.21,1.79c-0.29,0.69-0.43,1.44-0.43,2.25
		s0.14,1.56,0.43,2.25c0.29,0.69,0.69,1.28,1.21,1.79s1.12,0.91,1.82,1.19S284.95,405.89,285.78,405.89z"/>
	<path class="st0" d="M296.99,407.6v-14.72h11.11v1.79h-9.03v4.21h4.58c1.75,0,3.09,0.37,3.99,1.09c0.91,0.73,1.36,1.79,1.36,3.17
		c0,1.43-0.49,2.53-1.48,3.3c-0.99,0.77-2.4,1.16-4.23,1.16H296.99L296.99,407.6z M299.07,405.93h4.15c1.22,0,2.14-0.23,2.77-0.69
		c0.62-0.46,0.93-1.15,0.93-2.06c0-1.77-1.24-2.65-3.7-2.65h-4.15L299.07,405.93L299.07,405.93z"/>
	<path class="st0" d="M312.37,407.6v-14.72h5.74c1.29,0,2.39,0.2,3.3,0.61c0.91,0.41,1.61,1,2.11,1.77
		c0.49,0.77,0.73,1.69,0.73,2.76s-0.25,1.98-0.73,2.74c-0.49,0.77-1.19,1.36-2.11,1.77c-0.91,0.41-2.01,0.62-3.3,0.62h-4.58
		l0.95-0.99v5.45L312.37,407.6L312.37,407.6z M314.47,402.36l-0.95-1.05h4.52c1.35,0,2.37-0.29,3.06-0.86s1.04-1.39,1.04-2.44
		s-0.35-1.87-1.04-2.44s-1.71-0.86-3.06-0.86h-4.52l0.95-1.05V402.36z"/>
	<path class="st0" d="M324.4,407.6l6.67-14.72h2.08l6.69,14.72h-2.21l-5.95-13.55h0.84l-5.95,13.55H324.4z M327.24,403.92l0.57-1.68
		h8.28l0.61,1.68H327.24z"/>
	<path class="st0" d="M342.25,407.6h-2.46l5.28-8.31l1.79,1.05L342.25,407.6z M344.99,400.46l-4.84-7.59h2.25l4.51,7.3
		L344.99,400.46z M349.83,401.12h-4.33v-1.85h4.33V401.12z M351.25,407.6h-2.06v-14.72h2.06V407.6z M350.62,401.12v-1.85h4.31v1.85
		H350.62z M355.46,400.46l-1.95-0.3l4.52-7.3h2.25L355.46,400.46z M358.17,407.6l-4.61-7.26l1.76-1.05l5.3,8.31H358.17z"/>
	<path class="st0" d="M364.94,405.77h8.58v1.83h-10.68v-14.72h10.39v1.83h-8.28v11.06H364.94z M364.75,399.23h7.57v1.79h-7.57
		V399.23z"/>
	<path class="st0" d="M378.93,407.6h-2.11v-14.72h2.11V407.6z M387.57,401.04h-8.85v-1.83h8.85V401.04z M387.38,392.87h2.11v14.72
		h-2.11V392.87z"/>
	<path class="st0" d="M396.18,407.6h-2.11v-14.72h2.11V407.6z M404.82,401.04h-8.85v-1.83h8.85V401.04z M404.63,392.87h2.11v14.72
		h-2.11V392.87z"/>
	<path class="st0" d="M420.05,407.6v-4.79l0.55,0.5h-4.61c-1.19,0-2.22-0.2-3.08-0.61c-0.86-0.41-1.52-0.99-1.98-1.75
		s-0.69-1.68-0.69-2.77c0-1.12,0.25-2.08,0.73-2.87c0.49-0.79,1.19-1.4,2.08-1.81s1.95-0.62,3.13-0.62h5.91v14.72L420.05,407.6
		L420.05,407.6z M410.25,407.6l3.64-5.21h2.14l-3.56,5.21H410.25z M420.05,402.13v-8.04l0.55,0.61h-4.31c-1.26,0-2.23,0.3-2.9,0.87
		c-0.67,0.57-1.01,1.44-1.01,2.58c0,1.08,0.32,1.91,0.96,2.5c0.64,0.59,1.58,0.89,2.83,0.89h4.44L420.05,402.13z"/>
</g>
</svg>
