<?xml version="1.0" encoding="utf-8"?>
<!-- Generator: Adobe Illustrator 25.0.1, SVG Export Plug-In . SVG Version: 6.00 Build 0)  -->
<svg version="1.1" id="Layer_1" xmlns="http://www.w3.org/2000/svg" xmlns:xlink="http://www.w3.org/1999/xlink" x="0px" y="0px"
	 viewBox="0 0 20 40" style="enable-background:new 0 0 20 40;" xml:space="preserve">
<style type="text/css">
	.st0{clip-path:url(#SVGID_2_);}
	.st1{fill:none;stroke:#D83E1B;stroke-width:1.4286;stroke-linecap:round;stroke-linejoin:round;}
	.st2{clip-path:url(#SVGID_4_);}
	.st3{fill:#D83E1B;}
	.st4{fill:#FFFFFF;}
</style>
<g>
	<defs>
		<rect id="SVGID_1_" width="20" height="20"/>
	</defs>
	<clipPath id="SVGID_2_">
		<use xlink:href="#SVGID_1_"  style="overflow:visible;"/>
	</clipPath>
	<g class="st0">
		<path class="st1" d="M1.4,5h17.1"/>
		<path class="st1" d="M3.6,5h12.9v12.9c0,0.4-0.2,0.7-0.4,1c-0.3,0.3-0.6,0.4-1,0.4H5c-0.4,0-0.7-0.2-1-0.4s-0.4-0.6-0.4-1V5z"/>
		<path class="st1" d="M6.4,5V4.3c0-0.9,0.4-1.9,1-2.5c0.7-0.7,1.6-1,2.5-1c0.9,0,1.9,0.4,2.5,1c0.7,0.7,1,1.6,1,2.5V5"/>
		<path class="st1" d="M7.9,7.9v7.9"/>
		<path class="st1" d="M12.1,7.9v7.9"/>
	</g>
</g>
<g>
	<defs>
		<rect id="SVGID_3_" y="20" width="20" height="20"/>
	</defs>
	<clipPath id="SVGID_4_">
		<use xlink:href="#SVGID_3_"  style="overflow:visible;"/>
	</clipPath>
	<g class="st2">
		<path class="st3" d="M18.6,24.3h-2.1h-2.1v0c0-1.1-0.4-2.2-1.3-3S11.1,20,10,20c-1.1,0-2.2,0.4-3,1.3c-0.8,0.8-1.3,1.9-1.3,3v0
			H3.6H1.4c-0.4,0-0.7,0.3-0.7,0.7s0.3,0.7,0.7,0.7h1.4v12.1c0,0.6,0.2,1.1,0.6,1.5S4.4,40,5,40h10c0.6,0,1.1-0.2,1.5-0.6
			c0.4-0.4,0.6-0.9,0.6-1.5V25.7h1.4c0.4,0,0.7-0.3,0.7-0.7S19,24.3,18.6,24.3z M7.1,24.3c0-0.8,0.3-1.5,0.8-2c1.1-1.1,3-1.1,4,0
			c0.5,0.5,0.8,1.3,0.8,2v0L7.1,24.3L7.1,24.3z"/>
		<path class="st4" d="M7.9,27.1c-0.4,0-0.7,0.3-0.7,0.7v7.9c0,0.4,0.3,0.7,0.7,0.7s0.7-0.3,0.7-0.7v-7.9
			C8.6,27.5,8.3,27.1,7.9,27.1z"/>
		<path class="st4" d="M12.1,27.1c-0.4,0-0.7,0.3-0.7,0.7v7.9c0,0.4,0.3,0.7,0.7,0.7s0.7-0.3,0.7-0.7v-7.9
			C12.9,27.5,12.5,27.1,12.1,27.1z"/>
	</g>
</g>
</svg>
